<svg xmlns="http://www.w3.org/2000/svg" xmlns:xlink="http://www.w3.org/1999/xlink" version="1.1" width="256" height="256" viewBox="0 0 256 256" xml:space="preserve">

<defs>
</defs>
<g style="stroke: none; stroke-width: 0; stroke-dasharray: none; stroke-linecap: butt; stroke-linejoin: miter; stroke-miterlimit: 10; fill: none; fill-rule: nonzero; opacity: 1;" transform="translate(1.4065934065934016 1.4065934065934016) scale(2.81 2.81)" >
	<path d="M 68.408 11.061 h 6.197 c 4.289 0 7.765 3.477 7.765 7.765 v 8.593 H 1 v -8.593 c 0 -4.289 3.477 -7.765 7.765 -7.765 h 6.197 C 14.962 11.061 68.408 11.061 68.408 11.061 z" style="stroke: none; stroke-width: 1; stroke-dasharray: none; stroke-linecap: butt; stroke-linejoin: miter; stroke-miterlimit: 10; fill: rgb(247,97,97); fill-rule: nonzero; opacity: 1;" transform=" matrix(1 0 0 1 0 0) " stroke-linecap="round" />
	<path d="M 8.765 82.911 h 65.84 c 4.289 0 7.765 -3.477 7.765 -7.765 V 27.419 H 1 v 47.727 C 1 79.434 4.477 82.911 8.765 82.911 z" style="stroke: none; stroke-width: 1; stroke-dasharray: none; stroke-linecap: butt; stroke-linejoin: miter; stroke-miterlimit: 10; fill: rgb(215,230,230); fill-rule: nonzero; opacity: 1;" transform=" matrix(1 0 0 1 0 0) " stroke-linecap="round" />
	<path d="M 20.116 18.882 h -2.624 c -1.397 0 -2.53 -1.133 -2.53 -2.53 V 5.769 c 0 -1.397 1.133 -2.53 2.53 -2.53 h 2.624 c 1.397 0 2.53 1.133 2.53 2.53 v 10.582 C 22.646 17.749 21.513 18.882 20.116 18.882 z" style="stroke: none; stroke-width: 1; stroke-dasharray: none; stroke-linecap: butt; stroke-linejoin: miter; stroke-miterlimit: 10; fill: rgb(215,230,230); fill-rule: nonzero; opacity: 1;" transform=" matrix(1 0 0 1 0 0) " stroke-linecap="round" />
	<path d="M 65.878 18.882 h -2.624 c -1.397 0 -2.53 -1.133 -2.53 -2.53 V 5.769 c 0 -1.397 1.133 -2.53 2.53 -2.53 h 2.624 c 1.397 0 2.53 1.133 2.53 2.53 v 10.582 C 68.408 17.749 67.275 18.882 65.878 18.882 z" style="stroke: none; stroke-width: 1; stroke-dasharray: none; stroke-linecap: butt; stroke-linejoin: miter; stroke-miterlimit: 10; fill: rgb(215,230,230); fill-rule: nonzero; opacity: 1;" transform=" matrix(1 0 0 1 0 0) " stroke-linecap="round" />
	<path d="M 60.725 12.061 H 22.646 c -0.552 0 -1 -0.448 -1 -1 s 0.448 -1 1 -1 h 38.079 c 0.553 0 1 0.448 1 1 S 61.277 12.061 60.725 12.061 z" style="stroke: none; stroke-width: 1; stroke-dasharray: none; stroke-linecap: butt; stroke-linejoin: miter; stroke-miterlimit: 10; fill: rgb(0,0,0); fill-rule: nonzero; opacity: 1;" transform=" matrix(1 0 0 1 0 0) " stroke-linecap="round" />
	<path d="M 82.37 28.418 H 1 c -0.552 0 -1 -0.448 -1 -1 v -8.592 c 0 -4.833 3.932 -8.766 8.765 -8.766 h 6.198 c 0.552 0 1 0.448 1 1 s -0.448 1 -1 1 H 8.765 C 5.035 12.061 2 15.096 2 18.826 v 7.592 h 79.37 v -7.592 c 0 -3.73 -3.034 -6.766 -6.765 -6.766 h -6.197 c -0.553 0 -1 -0.448 -1 -1 s 0.447 -1 1 -1 h 6.197 c 4.833 0 8.765 3.932 8.765 8.766 v 8.592 C 83.37 27.971 82.923 28.418 82.37 28.418 z" style="stroke: none; stroke-width: 1; stroke-dasharray: none; stroke-linecap: butt; stroke-linejoin: miter; stroke-miterlimit: 10; fill: rgb(0,0,0); fill-rule: nonzero; opacity: 1;" transform=" matrix(1 0 0 1 0 0) " stroke-linecap="round" />
	<path d="M 74.605 83.91 H 8.765 C 3.932 83.91 0 79.979 0 75.146 V 27.418 c 0 -0.552 0.448 -1 1 -1 h 81.37 c 0.553 0 1 0.448 1 1 v 47.727 C 83.37 79.979 79.438 83.91 74.605 83.91 z M 2 28.418 v 46.727 c 0 3.73 3.035 6.765 6.765 6.765 h 65.84 c 3.73 0 6.765 -3.034 6.765 -6.765 V 28.418 H 2 z" style="stroke: none; stroke-width: 1; stroke-dasharray: none; stroke-linecap: butt; stroke-linejoin: miter; stroke-miterlimit: 10; fill: rgb(0,0,0); fill-rule: nonzero; opacity: 1;" transform=" matrix(1 0 0 1 0 0) " stroke-linecap="round" />
	<path d="M 20.116 19.881 h -2.624 c -1.946 0 -3.53 -1.583 -3.53 -3.53 V 5.77 c 0 -1.946 1.583 -3.53 3.53 -3.53 h 2.624 c 1.946 0 3.53 1.583 3.53 3.53 v 10.582 C 23.646 18.298 22.063 19.881 20.116 19.881 z M 17.493 4.24 c -0.844 0 -1.53 0.686 -1.53 1.53 v 10.582 c 0 0.844 0.686 1.53 1.53 1.53 h 2.624 c 0.844 0 1.53 -0.686 1.53 -1.53 V 5.77 c 0 -0.844 -0.686 -1.53 -1.53 -1.53 H 17.493 z" style="stroke: none; stroke-width: 1; stroke-dasharray: none; stroke-linecap: butt; stroke-linejoin: miter; stroke-miterlimit: 10; fill: rgb(0,0,0); fill-rule: nonzero; opacity: 1;" transform=" matrix(1 0 0 1 0 0) " stroke-linecap="round" />
	<path d="M 65.878 19.881 h -2.624 c -1.946 0 -3.529 -1.583 -3.529 -3.53 V 5.77 c 0 -1.946 1.583 -3.53 3.529 -3.53 h 2.624 c 1.946 0 3.53 1.583 3.53 3.53 v 10.582 C 69.408 18.298 67.824 19.881 65.878 19.881 z M 63.254 4.24 c -0.843 0 -1.529 0.686 -1.529 1.53 v 10.582 c 0 0.844 0.687 1.53 1.529 1.53 h 2.624 c 0.844 0 1.53 -0.686 1.53 -1.53 V 5.77 c 0 -0.844 -0.687 -1.53 -1.53 -1.53 H 63.254 z" style="stroke: none; stroke-width: 1; stroke-dasharray: none; stroke-linecap: butt; stroke-linejoin: miter; stroke-miterlimit: 10; fill: rgb(0,0,0); fill-rule: nonzero; opacity: 1;" transform=" matrix(1 0 0 1 0 0) " stroke-linecap="round" />
	<path d="M 81.952 64.208 l 1.037 -6.371 c 0.275 -1.648 1.833 -2.762 3.481 -2.488 l 0 0 c 1.648 0.275 2.762 1.833 2.488 3.481 l -2.872 17.4 c -0.036 0.267 -0.08 0.532 -0.133 0.795 l -0.01 0.058 H 85.94 c -0.662 3.205 -2.611 6.135 -5.64 7.95 l 0 0 c -5.743 3.442 -13.189 1.578 -16.631 -4.165 l -1.465 -2.444 l -5.063 -8.446 l -0.098 -0.164 c -0.859 -1.433 -0.394 -3.292 1.04 -4.151 l 0 0 c 1.433 -0.859 3.33 -0.407 4.189 1.026 l 0.094 0.157 l 0 0 l -1.201 -2.003 c -0.859 -1.433 -0.394 -3.292 1.04 -4.151 l 0 0 c 1.433 -0.859 3.292 -0.394 4.151 1.04 l -1.063 -1.774 c -0.859 -1.433 -0.394 -3.292 1.04 -4.151 c 1.433 -0.859 3.292 -0.394 4.151 1.04 l -5.538 -9.239 c -0.859 -1.433 -0.394 -3.292 1.04 -4.151 l 0 0 c 1.433 -0.859 3.292 -0.394 4.151 1.04 l 11.817 19.714 L 81.952 64.208 z" style="stroke: none; stroke-width: 1; stroke-dasharray: none; stroke-linecap: butt; stroke-linejoin: miter; stroke-miterlimit: 10; fill: rgb(253,199,148); fill-rule: nonzero; opacity: 1;" transform=" matrix(1 0 0 1 0 0) " stroke-linecap="round" />
	<path d="M 74.091 87.764 c -1.069 0 -2.146 -0.132 -3.211 -0.398 c -3.4 -0.852 -6.266 -2.977 -8.067 -5.983 L 56.186 70.33 c -0.554 -0.924 -0.714 -2.007 -0.453 -3.05 c 0.262 -1.043 0.914 -1.922 1.837 -2.475 c 0.693 -0.417 1.482 -0.609 2.277 -0.574 c -0.401 -1.665 0.298 -3.472 1.844 -4.397 c 0.692 -0.415 1.466 -0.602 2.265 -0.57 c -0.358 -1.643 0.344 -3.405 1.863 -4.315 c 0.62 -0.372 1.313 -0.566 2.018 -0.575 l -3.748 -6.254 c -0.554 -0.922 -0.714 -2.004 -0.453 -3.047 c 0.262 -1.043 0.914 -1.923 1.837 -2.476 c 1.9 -1.142 4.381 -0.521 5.522 1.383 l 10.41 17.368 l 0.598 -3.671 c 0.178 -1.063 0.757 -1.992 1.631 -2.617 c 0.876 -0.626 1.94 -0.872 3.002 -0.696 c 1.061 0.177 1.989 0.757 2.614 1.631 c 0.626 0.875 0.872 1.941 0.695 3.002 l -2.872 17.397 c -0.034 0.259 -0.082 0.544 -0.139 0.828 c -0.004 0.021 -0.009 0.043 -0.015 0.064 h 0.001 c -0.74 3.587 -2.965 6.724 -6.105 8.605 C 78.75 87.129 76.438 87.764 74.091 87.764 z M 59.655 66.227 c -0.371 0 -0.735 0.1 -1.058 0.293 c -0.465 0.278 -0.793 0.721 -0.925 1.246 C 57.54 68.29 57.621 68.835 57.9 69.3 l 0.099 0.162 l 6.528 10.892 c 1.527 2.549 3.956 4.35 6.839 5.071 c 2.878 0.724 5.872 0.278 8.42 -1.249 c 2.662 -1.596 4.548 -4.254 5.175 -7.295 c 0.005 -0.021 0.01 -0.042 0.015 -0.063 c 0.054 -0.283 0.09 -0.503 0.119 -0.724 l 2.877 -17.428 c 0.184 -1.103 -0.563 -2.147 -1.666 -2.332 c -0.534 -0.087 -1.069 0.036 -1.51 0.351 c -0.439 0.314 -0.731 0.781 -0.82 1.315 l -1.036 6.368 c -0.067 0.414 -0.387 0.742 -0.799 0.821 c -0.412 0.078 -0.83 -0.107 -1.046 -0.469 L 69.279 45.007 c -0.575 -0.958 -1.82 -1.271 -2.779 -0.696 c -0.465 0.279 -0.793 0.721 -0.925 1.246 s -0.051 1.069 0.228 1.533 l 5.535 9.234 c 0.001 0.003 0.002 0.005 0.003 0.007 c 0.284 0.474 0.13 1.088 -0.344 1.371 c -0.473 0.284 -1.087 0.131 -1.371 -0.344 l -0.003 -0.003 c -0.278 -0.463 -0.72 -0.79 -1.243 -0.921 c -0.524 -0.131 -1.069 -0.051 -1.534 0.228 c -0.957 0.574 -1.27 1.821 -0.695 2.78 l 1.062 1.771 c 0 0.001 0.001 0.002 0.001 0.003 c 0.284 0.474 0.131 1.087 -0.343 1.371 s -1.088 0.13 -1.372 -0.343 v -0.001 c -0.575 -0.957 -1.82 -1.27 -2.78 -0.695 c -0.957 0.574 -1.27 1.821 -0.695 2.78 l 1.2 2.003 c 0.284 0.474 0.131 1.087 -0.343 1.371 c -0.475 0.284 -1.088 0.131 -1.372 -0.343 l -0.094 -0.156 c -0.276 -0.461 -0.723 -0.786 -1.258 -0.916 C 59.989 66.247 59.821 66.227 59.655 66.227 z" style="stroke: none; stroke-width: 1; stroke-dasharray: none; stroke-linecap: butt; stroke-linejoin: miter; stroke-miterlimit: 10; fill: rgb(0,0,0); fill-rule: nonzero; opacity: 1;" transform=" matrix(1 0 0 1 0 0) " stroke-linecap="round" />
	<path d="M 73.948 63.622 c -0.34 0 -0.671 -0.173 -0.858 -0.485 l -3.464 -5.777 c -0.284 -0.474 -0.131 -1.088 0.343 -1.372 c 0.475 -0.285 1.089 -0.131 1.372 0.343 l 3.464 5.777 c 0.284 0.474 0.131 1.088 -0.343 1.372 C 74.301 63.576 74.123 63.622 73.948 63.622 z" style="stroke: none; stroke-width: 1; stroke-dasharray: none; stroke-linecap: butt; stroke-linejoin: miter; stroke-miterlimit: 10; fill: rgb(0,0,0); fill-rule: nonzero; opacity: 1;" transform=" matrix(1 0 0 1 0 0) " stroke-linecap="round" />
	<path d="M 68.757 66.733 c -0.34 0 -0.671 -0.173 -0.858 -0.485 l -2.4 -4.004 c -0.284 -0.475 -0.131 -1.088 0.343 -1.372 c 0.475 -0.285 1.088 -0.131 1.372 0.343 l 2.4 4.004 c 0.284 0.475 0.131 1.088 -0.343 1.372 C 69.109 66.688 68.932 66.733 68.757 66.733 z" style="stroke: none; stroke-width: 1; stroke-dasharray: none; stroke-linecap: butt; stroke-linejoin: miter; stroke-miterlimit: 10; fill: rgb(0,0,0); fill-rule: nonzero; opacity: 1;" transform=" matrix(1 0 0 1 0 0) " stroke-linecap="round" />
	<path d="M 63.565 69.846 c -0.34 0 -0.671 -0.173 -0.858 -0.486 l -1.199 -2.001 c -0.284 -0.474 -0.13 -1.088 0.344 -1.371 c 0.472 -0.284 1.087 -0.131 1.371 0.344 l 1.199 2.001 c 0.284 0.474 0.13 1.088 -0.344 1.371 C 63.918 69.8 63.74 69.846 63.565 69.846 z" style="stroke: none; stroke-width: 1; stroke-dasharray: none; stroke-linecap: butt; stroke-linejoin: miter; stroke-miterlimit: 10; fill: rgb(0,0,0); fill-rule: nonzero; opacity: 1;" transform=" matrix(1 0 0 1 0 0) " stroke-linecap="round" />
	<path d="M 14.374 44.87 H 9.856 c -0.552 0 -1 -0.448 -1 -1 v -6.562 c 0 -0.552 0.448 -1 1 -1 h 4.518 c 1.935 0 3.509 1.574 3.509 3.509 v 1.543 C 17.883 43.295 16.309 44.87 14.374 44.87 z M 10.856 42.87 h 3.518 c 0.832 0 1.509 -0.677 1.509 -1.509 v -1.543 c 0 -0.832 -0.677 -1.509 -1.509 -1.509 h -3.518 V 42.87 z" style="stroke: none; stroke-width: 1; stroke-dasharray: none; stroke-linecap: butt; stroke-linejoin: miter; stroke-miterlimit: 10; fill: rgb(0,0,0); fill-rule: nonzero; opacity: 1;" transform=" matrix(1 0 0 1 0 0) " stroke-linecap="round" />
	<path d="M 14.374 51.432 H 9.856 c -0.552 0 -1 -0.447 -1 -1 V 43.87 c 0 -0.552 0.448 -1 1 -1 h 4.518 c 1.935 0 3.509 1.574 3.509 3.509 v 1.544 C 17.883 49.857 16.309 51.432 14.374 51.432 z M 10.856 49.432 h 3.518 c 0.832 0 1.509 -0.677 1.509 -1.509 v -1.544 c 0 -0.832 -0.677 -1.509 -1.509 -1.509 h -3.518 V 49.432 z" style="stroke: none; stroke-width: 1; stroke-dasharray: none; stroke-linecap: butt; stroke-linejoin: miter; stroke-miterlimit: 10; fill: rgb(0,0,0); fill-rule: nonzero; opacity: 1;" transform=" matrix(1 0 0 1 0 0) " stroke-linecap="round" />
	<path d="M 27.874 51.432 h -2.487 c -2.112 0 -3.83 -1.718 -3.83 -3.829 v -7.465 c 0 -2.112 1.718 -3.83 3.83 -3.83 h 2.487 c 2.112 0 3.83 1.718 3.83 3.83 v 7.465 C 31.704 49.714 29.986 51.432 27.874 51.432 z M 25.387 38.308 c -1.009 0 -1.83 0.821 -1.83 1.83 v 7.465 c 0 1.009 0.821 1.829 1.83 1.829 h 2.487 c 1.009 0 1.83 -0.82 1.83 -1.829 v -7.465 c 0 -1.009 -0.821 -1.83 -1.83 -1.83 H 25.387 z" style="stroke: none; stroke-width: 1; stroke-dasharray: none; stroke-linecap: butt; stroke-linejoin: miter; stroke-miterlimit: 10; fill: rgb(0,0,0); fill-rule: nonzero; opacity: 1;" transform=" matrix(1 0 0 1 0 0) " stroke-linecap="round" />
	<path d="M 41.135 51.432 h -2.487 c -2.112 0 -3.83 -1.718 -3.83 -3.829 v -7.465 c 0 -2.112 1.718 -3.83 3.83 -3.83 h 2.487 c 2.112 0 3.83 1.718 3.83 3.83 v 7.465 C 44.965 49.714 43.247 51.432 41.135 51.432 z M 38.648 38.308 c -1.009 0 -1.83 0.821 -1.83 1.83 v 7.465 c 0 1.009 0.821 1.829 1.83 1.829 h 2.487 c 1.009 0 1.83 -0.82 1.83 -1.829 v -7.465 c 0 -1.009 -0.821 -1.83 -1.83 -1.83 H 38.648 z" style="stroke: none; stroke-width: 1; stroke-dasharray: none; stroke-linecap: butt; stroke-linejoin: miter; stroke-miterlimit: 10; fill: rgb(0,0,0); fill-rule: nonzero; opacity: 1;" transform=" matrix(1 0 0 1 0 0) " stroke-linecap="round" />
	<path d="M 49.599 51.444 c -0.553 0 -1 -0.447 -1 -1 V 37.295 c 0 -0.552 0.447 -1 1 -1 s 1 0.448 1 1 v 13.149 C 50.599 50.997 50.151 51.444 49.599 51.444 z" style="stroke: none; stroke-width: 1; stroke-dasharray: none; stroke-linecap: butt; stroke-linejoin: miter; stroke-miterlimit: 10; fill: rgb(0,0,0); fill-rule: nonzero; opacity: 1;" transform=" matrix(1 0 0 1 0 0) " stroke-linecap="round" />
	<path d="M 56.694 51.432 c -0.243 0 -0.486 -0.088 -0.679 -0.266 l -7.096 -6.562 c -0.205 -0.189 -0.321 -0.456 -0.321 -0.734 s 0.116 -0.545 0.321 -0.734 l 7.108 -6.574 c 0.404 -0.375 1.037 -0.352 1.413 0.055 c 0.375 0.406 0.35 1.039 -0.056 1.414 l -6.314 5.84 l 6.302 5.828 c 0.405 0.375 0.431 1.008 0.056 1.413 C 57.231 51.323 56.963 51.432 56.694 51.432 z" style="stroke: none; stroke-width: 1; stroke-dasharray: none; stroke-linecap: butt; stroke-linejoin: miter; stroke-miterlimit: 10; fill: rgb(0,0,0); fill-rule: nonzero; opacity: 1;" transform=" matrix(1 0 0 1 0 0) " stroke-linecap="round" />
	<path d="M 18.018 73.986 c -0.339 0 -0.664 -0.174 -0.85 -0.473 l -6.312 -10.168 v 9.641 c 0 0.553 -0.448 1 -1 1 s -1 -0.447 -1 -1 V 59.838 c 0 -0.446 0.296 -0.839 0.726 -0.962 c 0.431 -0.12 0.889 0.055 1.124 0.435 l 6.312 10.168 v -9.641 c 0 -0.553 0.448 -1 1 -1 s 1 0.447 1 1 v 13.148 c 0 0.446 -0.296 0.839 -0.726 0.962 C 18.201 73.974 18.109 73.986 18.018 73.986 z" style="stroke: none; stroke-width: 1; stroke-dasharray: none; stroke-linecap: butt; stroke-linejoin: miter; stroke-miterlimit: 10; fill: rgb(0,0,0); fill-rule: nonzero; opacity: 1;" transform=" matrix(1 0 0 1 0 0) " stroke-linecap="round" />
	<path d="M 29.453 73.974 h -2.487 c -2.112 0 -3.83 -1.718 -3.83 -3.829 V 62.68 c 0 -2.112 1.718 -3.83 3.83 -3.83 h 2.487 c 2.112 0 3.83 1.718 3.83 3.83 v 7.465 C 33.283 72.256 31.565 73.974 29.453 73.974 z M 26.966 60.85 c -1.009 0 -1.83 0.821 -1.83 1.83 v 7.465 c 0 1.009 0.821 1.829 1.83 1.829 h 2.487 c 1.009 0 1.83 -0.82 1.83 -1.829 V 62.68 c 0 -1.009 -0.821 -1.83 -1.83 -1.83 H 26.966 z" style="stroke: none; stroke-width: 1; stroke-dasharray: none; stroke-linecap: butt; stroke-linejoin: miter; stroke-miterlimit: 10; fill: rgb(0,0,0); fill-rule: nonzero; opacity: 1;" transform=" matrix(1 0 0 1 0 0) " stroke-linecap="round" />
	<path d="M 46.599 73.507 c -0.42 0 -0.798 -0.263 -0.941 -0.662 l -2.354 -6.549 l -2.354 6.549 c -0.15 0.418 -0.571 0.676 -1.001 0.66 c -0.443 -0.026 -0.816 -0.342 -0.915 -0.775 l -3.008 -13.148 c -0.124 -0.538 0.213 -1.074 0.751 -1.197 c 0.54 -0.124 1.075 0.213 1.198 0.752 l 2.247 9.82 l 2.141 -5.955 c 0.143 -0.397 0.519 -0.662 0.941 -0.662 l 0 0 c 0.422 0 0.798 0.265 0.941 0.662 l 2.141 5.955 l 2.247 -9.82 c 0.122 -0.54 0.667 -0.878 1.197 -0.752 c 0.539 0.123 0.875 0.659 0.752 1.197 L 47.573 72.73 c -0.099 0.434 -0.472 0.749 -0.915 0.775 C 46.639 73.506 46.618 73.507 46.599 73.507 z" style="stroke: none; stroke-width: 1; stroke-dasharray: none; stroke-linecap: butt; stroke-linejoin: miter; stroke-miterlimit: 10; fill: rgb(0,0,0); fill-rule: nonzero; opacity: 1;" transform=" matrix(1 0 0 1 0 0) " stroke-linecap="round" />
</g>
</svg>